<svg xmlns="http://www.w3.org/2000/svg" width="900" height="270" viewBox="0 0 900 270" font-family="ui-monospace,SFMono-Regular,Consolas,Menlo,monospace"><defs><linearGradient id="bg" x1="0" y1="0" x2="1" y2="1"><stop offset="0" stop-color="#ffffff"/><stop offset="1" stop-color="#f6f8fa"/></linearGradient><pattern id="grid" width="30" height="30" patternUnits="userSpaceOnUse"><path d="M30 0H0V30" fill="none" stroke="#eaeef2"/></pattern></defs><rect width="900" height="270" rx="14" fill="url(#grid)" opacity=".5"/>
<text x="24" y="30" font-size="12" letter-spacing="3" fill="#57606a">▸ LIVE GITHUB STATS  ·  @hafsakhan09090</text>
<g opacity="0"><animate attributeName="opacity" values="0;1" dur=".6s" begin="0.0s" fill="freeze"/><animateTransform attributeName="transform" type="translate" values="0 10;0 0" dur=".6s" begin="0.0s" fill="freeze"/><rect x="24" y="52" width="200" height="88" rx="12" fill="#ffffff" stroke="#8a9a00" stroke-opacity=".55"/><rect x="24" y="68" width="4" height="56" rx="2" fill="#8a9a00"/><text x="46" y="104" font-size="38" font-weight="800" fill="#8a9a00">16</text><text x="46" y="126" font-size="10" letter-spacing="2" fill="#57606a">REPOSITORIES</text></g>
<g opacity="0"><animate attributeName="opacity" values="0;1" dur=".6s" begin="0.2s" fill="freeze"/><animateTransform attributeName="transform" type="translate" values="0 10;0 0" dur=".6s" begin="0.2s" fill="freeze"/><rect x="236" y="52" width="200" height="88" rx="12" fill="#ffffff" stroke="#0e8fa3" stroke-opacity=".55"/><rect x="236" y="68" width="4" height="56" rx="2" fill="#0e8fa3"/><text x="258" y="104" font-size="38" font-weight="800" fill="#0e8fa3">1</text><text x="258" y="126" font-size="10" letter-spacing="2" fill="#57606a">STARS EARNED</text></g>
<g opacity="0"><animate attributeName="opacity" values="0;1" dur=".6s" begin="0.4s" fill="freeze"/><animateTransform attributeName="transform" type="translate" values="0 10;0 0" dur=".6s" begin="0.4s" fill="freeze"/><rect x="24" y="152" width="200" height="88" rx="12" fill="#ffffff" stroke="#8a9a00" stroke-opacity=".55"/><rect x="24" y="168" width="4" height="56" rx="2" fill="#8a9a00"/><text x="46" y="204" font-size="38" font-weight="800" fill="#8a9a00">33</text><text x="46" y="226" font-size="10" letter-spacing="2" fill="#57606a">FOLLOWERS</text></g>
<g opacity="0"><animate attributeName="opacity" values="0;1" dur=".6s" begin="0.6000000000000001s" fill="freeze"/><animateTransform attributeName="transform" type="translate" values="0 10;0 0" dur=".6s" begin="0.6000000000000001s" fill="freeze"/><rect x="236" y="152" width="200" height="88" rx="12" fill="#ffffff" stroke="#0e8fa3" stroke-opacity=".55"/><rect x="236" y="168" width="4" height="56" rx="2" fill="#0e8fa3"/><text x="258" y="204" font-size="38" font-weight="800" fill="#0e8fa3">38</text><text x="258" y="226" font-size="10" letter-spacing="2" fill="#57606a">FOLLOWING</text></g>
<text x="480" y="30" font-size="12" letter-spacing="3" fill="#57606a">TOP LANGUAGES</text>
<text x="480" y="74" font-size="13" fill="#1f2328">Python</text><rect x="600" y="62" width="240" height="16" rx="8" fill="#eaeef2"/><rect x="600" y="62" width="0" height="16" rx="8" fill="#8a9a00"><animate attributeName="width" values="0;135;135;0" keyTimes="0;.15;.92;1" dur="9s" begin="0.0s" repeatCount="indefinite"/></rect><text x="880" y="74" text-anchor="end" font-size="12" fill="#57606a">56%</text>
<text x="480" y="108" font-size="13" fill="#1f2328">HTML</text><rect x="600" y="96" width="240" height="16" rx="8" fill="#eaeef2"/><rect x="600" y="96" width="0" height="16" rx="8" fill="#0e8fa3"><animate attributeName="width" values="0;60;60;0" keyTimes="0;.15;.92;1" dur="9s" begin="0.15s" repeatCount="indefinite"/></rect><text x="880" y="108" text-anchor="end" font-size="12" fill="#57606a">25%</text>
<text x="480" y="142" font-size="13" fill="#1f2328">Jupyter Notebook</text><rect x="600" y="130" width="240" height="16" rx="8" fill="#eaeef2"/><rect x="600" y="130" width="0" height="16" rx="8" fill="#8a9a00"><animate attributeName="width" values="0;30;30;0" keyTimes="0;.15;.92;1" dur="9s" begin="0.3s" repeatCount="indefinite"/></rect><text x="880" y="142" text-anchor="end" font-size="12" fill="#57606a">12%</text>
<text x="480" y="176" font-size="13" fill="#1f2328">Dockerfile</text><rect x="600" y="164" width="240" height="16" rx="8" fill="#eaeef2"/><rect x="600" y="164" width="0" height="16" rx="8" fill="#0e8fa3"><animate attributeName="width" values="0;15;15;0" keyTimes="0;.15;.92;1" dur="9s" begin="0.44999999999999996s" repeatCount="indefinite"/></rect><text x="880" y="176" text-anchor="end" font-size="12" fill="#57606a">6%</text>
<text x="24" y="256" font-size="10" fill="#8c959f">auto-updated 2026-10-07 by GitHub Actions</text>
<rect x=".5" y=".5" width="899" height="269" rx="14" fill="none" stroke="#d0d7de"/></svg>